<svg enable-background="new 0 0 50 50" version="1.1" viewBox="0 0 50 62" xml:space="preserve" xmlns="http://www.w3.org/2000/svg"><g transform="matrix(-1 0 0 1 50 0)" fill="#800000"><path d="m39 9c0.1-0.7 0.1-1.3 0.1-1.8 0-3.3-2.4-5.9-5.5-5.9-3.8 0-6.1 3-6.1 6 0 3.9 1.7 5.7 3.1 7.3 1.1 1.2 2 2.2 2 4.2 0 3.6-3.5 4.3-11 4.3-5.8 0-11 3.4-14 9.8-2.6 4.7-3.4 9.3-3.5 9.5-0.1 0.4 0.1 0.8 0.4 1.1 0.1 0.1 1.9 1.7 5 1.7 4.7 0 7.8-2.7 8.9-3.7h0.7 0.4l-0.4 2.6c0 0.3 0 0.6 0.2 0.9l2 3.1c0.2 0.4 0.6 0.6 1.1 0.6 0.2 0 0.5-0.1 0.7-0.2 0.6-0.4 0.7-1.1 0.4-1.7l-1.9-2.8 0.4-2.7c1.7-0.1 3.3-0.4 4.8-0.8l-0.3 2.6c0 0.3 0 0.6 0.2 0.8l2 3.1c0.2 0.4 0.6 0.6 1.1 0.6 0.2 0 0.5-0.1 0.7-0.2 0.6-0.4 0.7-1.1 0.4-1.7l-1.9-2.7 0.4-3.3c6.6-2.8 10-8.6 10-17 0-0.7-0.6-1.2-1.2-1.2s-1.2 0.6-1.2 1.2c0 9.8-4.9 15-15 16l0.1-0.9c0.1-0.7-0.4-1.3-1-1.4-0.7-0.1-1.3 0.4-1.4 1l-0.3 1.4h-0.8c-3.7 0-6.6-2-6.6-2.1-0.6-0.4-1.3-0.3-1.7 0.3s-0.3 1.3 0.3 1.7c0.1 0.1 1.7 1.2 4.1 1.9-1.3 0.9-3.2 1.8-5.6 1.8-1.3 0-2.2-0.4-2.8-0.7 0.8-3.4 4.7-16 15-16 5.6 0 13 0 13-6.8 0-2.9-1.4-4.5-2.6-5.8-1.3-1.5-2.4-2.7-2.4-5.6 0-1.3 1-3.5 3.6-3.5 1.7 0 3 1.5 3 3.4 0 0.5 0 1-0.1 1.5-0.1 0.2 0 0.5 0 0.7l6.9 21c0.2 0.7 0.9 1 1.6 0.8s1-0.9 0.8-1.6z"/><path d="m30 27s-2.8 4.4-13 4.4c-0.7 0-1.3 0.6-1.3 1.2 0 0.7 0.6 1.2 1.3 1.2 12 0 15-5.4 16-5.6 0.3-0.6 0.1-1.3-0.4-1.7-0.5-0.3-1.3-0.1-1.7 0.5z"/></g></svg>
