<svg xmlns="http://www.w3.org/2000/svg" xmlns:xlink="http://www.w3.org/1999/xlink" version="1.1" x="0px" y="0px" viewBox="0 0 50 50" enable-background="new 0 0 50 50" xml:space="preserve"><g><path d="M39,9c0.1-0.7,0.1-1.3,0.1-1.8c0-3.3-2.4-5.9-5.5-5.9c-3.8,0-6.1,3-6.1,6c0,3.9,1.7,5.7,3.1,7.3c1.1,1.2,2,2.2,2,4.2   c0,3.6-3.5,4.3-10.7,4.3c-5.8,0-10.7,3.4-14.2,9.8c-2.6,4.7-3.4,9.3-3.5,9.5c-0.1,0.4,0.1,0.8,0.4,1.1c0.1,0.1,1.9,1.7,5,1.7   c4.7,0,7.8-2.7,8.9-3.7c0.2,0,0.5,0,0.7,0c0.1,0,0.3,0,0.4,0l-0.4,2.6c0,0.3,0,0.6,0.2,0.9l2,3.1c0.2,0.4,0.6,0.6,1.1,0.6   c0.2,0,0.5-0.1,0.7-0.2c0.6-0.4,0.7-1.1,0.4-1.7L21.7,44l0.4-2.7c1.7-0.1,3.3-0.4,4.8-0.8l-0.3,2.6c0,0.3,0,0.6,0.2,0.8l2,3.1   c0.2,0.4,0.6,0.6,1.1,0.6c0.2,0,0.5-0.1,0.7-0.2c0.6-0.4,0.7-1.1,0.4-1.7L29.1,43l0.4-3.3c6.6-2.8,10.1-8.6,10.1-17   c0-0.7-0.6-1.2-1.2-1.2s-1.2,0.6-1.2,1.2c0,9.8-4.9,15.2-14.6,16.2l0.1-0.9c0.1-0.7-0.4-1.3-1-1.4c-0.7-0.1-1.3,0.4-1.4,1L20,39   c-0.3,0-0.5,0-0.8,0c-3.7,0-6.6-2-6.6-2.1c-0.6-0.4-1.3-0.3-1.7,0.3c-0.4,0.6-0.3,1.3,0.3,1.7c0.1,0.1,1.7,1.2,4.1,1.9   c-1.3,0.9-3.2,1.8-5.6,1.8c-1.3,0-2.2-0.4-2.8-0.7c0.8-3.4,4.7-16.5,15.1-16.5c5.6,0,13.2,0,13.2-6.8c0-2.9-1.4-4.5-2.6-5.8   c-1.3-1.5-2.4-2.7-2.4-5.6c0-1.3,1-3.5,3.6-3.5c1.7,0,3,1.5,3,3.4c0,0.5,0,1-0.1,1.5c-0.1,0.2,0,0.5,0,0.7l6.9,20.7   c0.2,0.7,0.9,1,1.6,0.8c0.7-0.2,1-0.9,0.8-1.6L39,9z"  style="fill:#800000" /><path d="M29.6,27.3c0,0-2.8,4.4-13.4,4.4c-0.7,0-1.3,0.6-1.3,1.2c0,0.7,0.6,1.2,1.3,1.2c12.1,0,15.4-5.4,15.5-5.6   c0.3-0.6,0.1-1.3-0.4-1.7C30.8,26.5,30,26.7,29.6,27.3z" style="fill:#800000" /></g></svg>