<svg
xmlns:svg="http://www.w3.org/2000/svg"
xmlns="http://www.w3.org/2000/svg"
y="0px"
x="0px"
version="1.1">
<g style="fill:#800000" transform="matrix(-1,0,0,1,30,0)" id="g28">
<path
style="fill:#800000"
id="path24"
d="m 39,9 c 0.1,-0.7 0.1,-1.3 0.1,-1.8 0,-3.3 -2.4,-5.9 -5.5,-5.9 -3.8,0 -6.1,3 -6.1,6 0,3.9 1.7,5.7 3.1,7.3 1.1,1.2 2,2.2 2,4.2 0,3.6 -3.5,4.3 -10.7,4.3 -5.8,0 -10.7,3.4 -14.2,9.8 -2.6,4.7 -3.4,9.3 -3.5,9.5 -0.1,0.4 0.1,0.8 0.4,1.1 0.1,0.1 1.9,1.7 5,1.7 4.7,0 7.8,-2.7 8.9,-3.7 0.2,0 0.5,0 0.7,0 0.1,0 0.3,0 0.4,0 l -0.4,2.6 c 0,0.3 0,0.6 0.2,0.9 l 2,3.1 c 0.2,0.4 0.6,0.6 1.1,0.6 0.2,0 0.5,-0.1 0.7,-0.2 0.6,-0.4 0.7,-1.1 0.4,-1.7 L 21.7,44 22.1,41.3 c 1.7,-0.1 3.3,-0.4 4.8,-0.8 l -0.3,2.6 c 0,0.3 0,0.6 0.2,0.8 l 2,3.1 c 0.2,0.4 0.6,0.6 1.1,0.6 0.2,0 0.5,-0.1 0.7,-0.2 0.6,-0.4 0.7,-1.1 0.4,-1.7 L 29.1,43 29.5,39.7 c 6.6,-2.8 10.1,-8.6 10.1,-17 0,-0.7 -0.6,-1.2 -1.2,-1.2 -0.6,0 -1.2,0.6 -1.2,1.2 0,9.8 -4.9,15.2 -14.6,16.2 L 22.7,38 c 0.1,-0.7 -0.4,-1.3 -1,-1.4 -0.7,-0.1 -1.3,0.4 -1.4,1 L 20,39 c -0.3,0 -0.5,0 -0.8,0 -3.7,0 -6.6,-2 -6.6,-2.1 -0.6,-0.4 -1.3,-0.3 -1.7,0.3 -0.4,0.6 -0.3,1.3 0.3,1.7 0.1,0.1 1.7,1.2 4.1,1.9 -1.3,0.9 -3.2,1.8 -5.6,1.8 -1.3,0 -2.2,-0.4 -2.8,-0.7 0.8,-3.4 4.7,-16.5 15.1,-16.5 5.6,0 13.2,0 13.2,-6.8 0,-2.9 -1.4,-4.5 -2.6,-5.8 -1.3,-1.5 -2.4,-2.7 -2.4,-5.6 0,-1.3 1,-3.5 3.6,-3.5 1.7,0 3,1.5 3,3.4 0,0.5 0,1 -0.1,1.5 -0.1,0.2 0,0.5 0,0.7 L 20,20 c 0.2,0.7 0.9,1 1.6,0.8 0.7,-0.2 1,-0.9 0.8,-1.6 z" /><path
style="fill:#800000"
id="path26"
d="m 29.6,27.3 c 0,0 -2.8,4.4 -13.4,4.4 -0.7,0 -1.3,0.6 -1.3,1.2 0,0.7 0.6,1.2 1.3,1.2 12.1,0 15.4,-5.4 15.5,-5.6 0.3,-0.6 0.1,-1.3 -0.4,-1.7 -0.5,-0.3 -1.3,-0.1 -1.7,0.5 z" /></g></svg>
